<svg xmlns="http://www.w3.org/2000/svg" viewBox="0 0 600 800">
  <defs>
    <radialGradient id="bg-q4" cx="50%" cy="45%" r="60%">
      <stop offset="0%" stop-color="#151515"/>
      <stop offset="100%" stop-color="#050505"/>
    </radialGradient>
    <filter id="blur-q4"><feGaussianBlur stdDeviation="25"/></filter>
  </defs>
  <rect width="600" height="800" fill="url(#bg-q4)"/>
  <ellipse cx="300" cy="380" rx="200" ry="250" fill="#1a1a1a" filter="url(#blur-q4)" opacity="0.5"/>

  <!-- Cage grid -->
  <line x1="150" y1="0" x2="150" y2="800" stroke="#fff" stroke-opacity="0.02" stroke-width="1"/>
  <line x1="300" y1="0" x2="300" y2="800" stroke="#fff" stroke-opacity="0.02" stroke-width="1"/>
  <line x1="450" y1="0" x2="450" y2="800" stroke="#fff" stroke-opacity="0.02" stroke-width="1"/>
  <line x1="0" y1="200" x2="600" y2="200" stroke="#fff" stroke-opacity="0.02" stroke-width="1"/>
  <line x1="0" y1="400" x2="600" y2="400" stroke="#fff" stroke-opacity="0.02" stroke-width="1"/>
  <line x1="0" y1="600" x2="600" y2="600" stroke="#fff" stroke-opacity="0.02" stroke-width="1"/>

  <!-- Multiple people silhouettes — community concept -->
  <!-- Person 1 (center, larger — main) -->
  <ellipse cx="300" cy="248" rx="36" ry="32" fill="#0e0e0e"/>
  <ellipse cx="300" cy="235" rx="38" ry="20" fill="#111"/>
  <path d="M 210 290 L 390 290 L 410 560 L 190 560 Z" fill="#090909"/>
  <path d="M 210 290 L 160 272 L 138 340 L 180 352 L 210 325 Z" fill="#090909"/>
  <path d="M 390 290 L 440 272 L 462 340 L 420 352 L 390 325 Z" fill="#090909"/>
  <path d="M 210 290 L 160 272 L 138 340 L 180 352 L 210 325 L 190 560 L 410 560 L 390 325 L 420 352 L 462 340 L 440 272 L 390 290 Q 355 278 300 276 Q 245 278 210 290 Z" fill="none" stroke="#161616" stroke-width="1.5"/>
  <!-- COMUNIDAD back print on main shirt -->
  <text x="300" y="435" font-family="'Space Grotesk', Arial Black, sans-serif" font-size="36" font-weight="900" fill="#c8c8c8" fill-opacity="0.7" text-anchor="middle">COMUNIDAD</text>
  <line x1="215" y1="445" x2="385" y2="445" stroke="#fff" stroke-opacity="0.12" stroke-width="1"/>
  <text x="300" y="462" font-family="Arial Narrow, sans-serif" font-size="10" fill="#666" fill-opacity="0.6" text-anchor="middle" letter-spacing="4">CALI — CO  2024</text>

  <!-- Person 2 (left, slightly behind) -->
  <ellipse cx="145" cy="295" rx="26" ry="23" fill="#0b0b0b"/>
  <path d="M 92 325 L 198 325 L 210 530 L 80 530 Z" fill="#080808" stroke="#141414" stroke-width="1"/>
  <path d="M 92 325 L 55 312 L 40 362 L 72 370 L 92 348 Z" fill="#080808"/>

  <!-- Person 3 (right, slightly behind) -->
  <ellipse cx="455" cy="295" rx="26" ry="23" fill="#0b0b0b"/>
  <path d="M 402 325 L 508 325 L 520 530 L 390 530 Z" fill="#080808" stroke="#141414" stroke-width="1"/>
  <path d="M 508 325 L 545 312 L 560 362 L 528 370 L 508 348 Z" fill="#080808"/>

  <!-- Person 4 (far left, very faint) -->
  <ellipse cx="62" cy="335" rx="20" ry="18" fill="#090909"/>
  <path d="M 22 358 L 102 358 L 110 520 L 14 520 Z" fill="#070707"/>

  <!-- Person 5 (far right, very faint) -->
  <ellipse cx="538" cy="335" rx="20" ry="18" fill="#090909"/>
  <path d="M 498 358 L 578 358 L 586 520 L 490 520 Z" fill="#070707"/>

  <!-- PRONCINE® neck label main person -->
  <rect x="276" y="278" width="48" height="10" rx="1" fill="#111" stroke="#252525" stroke-width="0.5"/>
  <text x="300" y="286" font-family="Arial Narrow, sans-serif" font-size="5.5" font-weight="700" fill="#555" text-anchor="middle" letter-spacing="1">PRONCINE®</text>

  <!-- Quarter label -->
  <text x="50" y="68" font-family="'Space Grotesk', Arial, sans-serif" font-size="11" fill="#fff" fill-opacity="0.4" letter-spacing="5">Q4 2024</text>
  <line x1="50" y1="75" x2="175" y2="75" stroke="#fff" stroke-opacity="0.15" stroke-width="1"/>

  <!-- Ghost text -->
  <text x="300" y="740" font-family="'Space Grotesk', Arial Black, sans-serif" font-size="68" font-weight="900" fill="#fff" fill-opacity="0.03" text-anchor="middle" letter-spacing="-2">COMUNIDAD</text>

  <line x1="50" y1="752" x2="550" y2="752" stroke="#fff" stroke-opacity="0.07" stroke-width="1"/>
  <text x="300" y="776" font-family="'Space Grotesk', Arial, sans-serif" font-size="10" fill="#fff" fill-opacity="0.18" text-anchor="middle" letter-spacing="8">PRONCINE®</text>
</svg>
